<?xml version="1.0" encoding="UTF-8"?>
<svg width="30px" height="18px" viewBox="0 0 30 18" version="1.1" xmlns="http://www.w3.org/2000/svg" xmlns:xlink="http://www.w3.org/1999/xlink">
    <!-- Generator: Sketch 53 (72520) - https://sketchapp.com -->
    <title>Group 3 Copy 6</title>
    <desc>Created with Sketch.</desc>
    <defs>
        <polygon id="path-1" points="0 6.47478099e-06 29.9371387 6.47478099e-06 29.9371387 17.9445108 0 17.9445108"></polygon>
    </defs>
    <g id="Page-1" stroke="none" stroke-width="1" fill="none" fill-rule="evenodd">
        <g id="Team" transform="translate(-332.000000, -3668.000000)">
            <g id="Group-3-Copy-6" transform="translate(332.000000, 3668.000000)">
                <mask id="mask-2" fill="white">
                    <use xlink:href="#path-1"></use>
                </mask>
                <g id="Clip-2"></g>
                <path d="M1.19465694,6.47478099e-06 L28.7424672,6.47478099e-06 C29.3995474,6.47478099e-06 29.9371387,0.476876978 29.9371387,1.05974029 L29.9371387,16.8847187 C29.9371387,17.467582 29.3995474,17.9445173 28.7424672,17.9445173 L1.19465694,17.9445173 C0.537576643,17.9445173 -1.45975754e-05,17.467582 -1.45975754e-05,16.8847187 L-1.45975754e-05,1.05974029 C-1.45975754e-05,0.476876978 0.537576643,6.47478099e-06 1.19465694,6.47478099e-06 L1.19465694,6.47478099e-06 Z M18.3988175,9.72706403 L27.5727591,16.5517187 L2.36436496,16.5517187 L11.5383066,9.72706403 L14.503781,11.9331 C14.7594015,12.1232655 15.1749489,12.1253374 15.4270657,11.9376971 L18.3988175,9.72706403 Z M28.3669927,15.1755604 L19.7207883,8.74353885 L28.3669927,2.31151727 L28.3669927,15.1755604 Z M26.9472847,1.39280504 L15.0629051,10.2337835 C15.043927,10.2478338 15.0126131,10.2477043 14.9934161,10.2334597 L3.10947445,1.39280504 L26.9472847,1.39280504 Z M1.57013139,2.31151727 L10.2162628,8.74353885 L1.57013139,15.1755604 L1.57013139,2.31151727 Z" id="Fill-1" fill="#686a6c" mask="url(#mask-2)"></path>
            </g>
        </g>
    </g>
</svg>
