<svg width="20" height="16" viewBox="0 0 20 16" fill="none" xmlns="http://www.w3.org/2000/svg">
<mask id="path-1-outside-1_1_165" maskUnits="userSpaceOnUse" x="0" y="0" width="20" height="16" fill="black">
<rect fill="white" width="20" height="16"/>
<path d="M2.3125 5.96875C2.1875 5.875 2 5.96875 2 6.125V12.5C2 13.3438 2.6875 14 3.5 14H16.5C17.3438 14 18 13.3438 18 12.5V6.125C18 5.96875 17.8438 5.875 17.7188 5.96875C17 6.53125 16.0938 7.21875 12.9062 9.53125C12.25 10 11.125 11.0312 10 11.0312C8.90625 11.0312 7.75 10 7.125 9.53125C3.9375 7.21875 3.03125 6.53125 2.3125 5.96875ZM10 10C10.75 10.0312 11.7812 9.09375 12.3125 8.71875C16.4688 5.71875 16.7812 5.4375 17.7188 4.6875C17.9062 4.5625 18 4.34375 18 4.09375V3.5C18 2.6875 17.3438 2 16.5 2H3.5C2.6875 2 2 2.6875 2 3.5V4.09375C2 4.34375 2.125 4.5625 2.3125 4.6875C3.25 5.4375 3.5625 5.71875 7.71875 8.71875C8.25 9.09375 9.28125 10.0312 10 10Z"/>
</mask>
<path d="M2.3125 5.96875L3.5125 4.36875L3.52894 4.38108L3.54512 4.39374L2.3125 5.96875ZM17.7188 5.96875L16.4861 4.39374L16.5023 4.38108L16.5187 4.36875L17.7188 5.96875ZM12.9062 9.53125L14.0807 11.1501L14.0747 11.1544L14.0687 11.1587L12.9062 9.53125ZM7.125 9.53125L8.29946 7.91241L8.3123 7.92173L8.325 7.93125L7.125 9.53125ZM10 10L9.91313 8.00189L9.99819 7.99819L10.0833 8.00173L10 10ZM12.3125 8.71875L13.483 10.3404L13.4745 10.3466L13.4659 10.3527L12.3125 8.71875ZM17.7188 4.6875L16.4694 3.12576L16.5371 3.07154L16.6093 3.0234L17.7188 4.6875ZM2.3125 4.6875L3.4219 3.0234L3.49412 3.07154L3.56189 3.12576L2.3125 4.6875ZM7.71875 8.71875L6.56538 10.3527L6.55677 10.3466L6.54821 10.3404L7.71875 8.71875ZM2.3125 5.96875L1.1125 7.56875C2.30597 8.46385 4 7.61684 4 6.125H2H0C0 4.32066 2.06903 3.28615 3.5125 4.36875L2.3125 5.96875ZM2 6.125H4V12.5H2H0V6.125H2ZM2 12.5H4C4 12.2121 3.76484 12 3.5 12V14V16C1.61016 16 0 14.4754 0 12.5H2ZM3.5 14V12H16.5V14V16H3.5V14ZM16.5 14V12C16.3904 12 16.257 12.0474 16.1522 12.1522C16.0474 12.257 16 12.3904 16 12.5H18H20C20 14.4483 18.4483 16 16.5 16V14ZM18 12.5H16V6.125H18H20V12.5H18ZM18 6.125H16C16 6.73263 16.3182 7.3492 16.914 7.68961C17.5473 8.05152 18.3389 8.00364 18.9187 7.56875L17.7188 5.96875L16.5187 4.36875C17.2236 3.84012 18.1558 3.79223 18.8985 4.21664C19.6036 4.61955 20 5.36112 20 6.125H18ZM17.7188 5.96875L18.9514 7.54376C18.202 8.13023 17.2707 8.83581 14.0807 11.1501L12.9062 9.53125L11.7318 7.91241C14.9168 5.60169 15.798 4.93227 16.4861 4.39374L17.7188 5.96875ZM12.9062 9.53125L14.0687 11.1587C13.9458 11.2465 13.237 11.8089 12.6924 12.1508C12.0914 12.5282 11.1347 13.0312 10 13.0312V11.0312V9.03125C9.9903 9.03125 10.1586 9.01865 10.5654 8.76325C10.7452 8.65033 10.9294 8.5175 11.1283 8.3673C11.2924 8.2434 11.553 8.04008 11.7438 7.90378L12.9062 9.53125ZM10 11.0312V13.0312C8.87626 13.0312 7.91704 12.5237 7.32318 12.1508C6.72731 11.7767 6.115 11.2737 5.925 11.1313L7.125 9.53125L8.325 7.93125C8.76 8.2575 9.03832 8.50459 9.45026 8.76325C9.86421 9.02318 10.03 9.03125 10 9.03125V11.0312ZM7.125 9.53125L5.95054 11.1501C2.76058 8.83581 1.82927 8.13023 1.07988 7.54376L2.3125 5.96875L3.54512 4.39374C4.23323 4.93227 5.11442 5.60169 8.29946 7.91241L7.125 9.53125ZM10 10L10.0833 8.00173C9.85841 7.99236 9.75201 8.05425 9.82138 8.02479C9.87503 8.00201 9.97698 7.9484 10.1325 7.84523C10.2833 7.74516 10.4419 7.62728 10.617 7.49331C10.7642 7.38066 10.9844 7.20818 11.1591 7.08481L12.3125 8.71875L13.4659 10.3527C13.375 10.4168 13.2671 10.5022 13.048 10.6698C12.8569 10.8161 12.6113 11.0009 12.3441 11.1782C12.0816 11.3524 11.7519 11.5507 11.3847 11.7067C11.0331 11.8559 10.5166 12.0233 9.91674 11.9983L10 10ZM12.3125 8.71875L11.142 7.09707C15.2804 4.10991 15.5651 3.84921 16.4694 3.12576L17.7188 4.6875L18.9681 6.24924C17.9974 7.02579 17.6571 7.32759 13.483 10.3404L12.3125 8.71875ZM17.7188 4.6875L16.6093 3.0234C16.1003 3.36279 16 3.86319 16 4.09375H18H20C20 4.82431 19.7122 5.76221 18.8282 6.3516L17.7188 4.6875ZM18 4.09375H16V3.5H18H20V4.09375H18ZM18 3.5H16C16 3.76484 16.2121 4 16.5 4V2V0C18.4754 0 20 1.61016 20 3.5H18ZM16.5 2V4H3.5V2V0H16.5V2ZM3.5 2V4C3.66621 4 3.78869 3.93036 3.85953 3.85953C3.93036 3.78869 4 3.66621 4 3.5H2H0C0 1.58293 1.58293 0 3.5 0V2ZM2 3.5H4V4.09375H2H0V3.5H2ZM2 4.09375H4C4 3.66737 3.78438 3.26505 3.4219 3.0234L2.3125 4.6875L1.2031 6.3516C0.46562 5.85995 0 5.02013 0 4.09375H2ZM2.3125 4.6875L3.56189 3.12576C4.4662 3.84921 4.75082 4.10991 8.88929 7.09707L7.71875 8.71875L6.54821 10.3404C2.37418 7.32759 2.0338 7.02579 1.06311 6.24924L2.3125 4.6875ZM7.71875 8.71875L8.87212 7.08481C9.04812 7.20905 9.2667 7.38044 9.41582 7.49488C9.59168 7.62983 9.75093 7.74879 9.90208 7.85003C10.0583 7.95465 10.1593 8.00849 10.2107 8.03082C10.2817 8.06159 10.1606 7.99113 9.91313 8.00189L10 10L10.0869 11.9981C9.47998 12.0245 8.9605 11.8486 8.61934 11.7006C8.25872 11.5442 7.93392 11.3461 7.67605 11.1734C7.41314 10.9973 7.17004 10.8135 6.98067 10.6682C6.76455 10.5024 6.655 10.4159 6.56538 10.3527L7.71875 8.71875Z" fill="white" mask="url(#path-1-outside-1_1_165)"/>
</svg>
