<?xml version="1.0" encoding="UTF-8"?>
<svg width="22px" height="25px" viewBox="0 0 22 25" version="1.1" xmlns="http://www.w3.org/2000/svg" xmlns:xlink="http://www.w3.org/1999/xlink">
    <!-- Generator: Sketch 53 (72520) - https://sketchapp.com -->
    <title>Group 14 Copy 2</title>
    <desc>Created with Sketch.</desc>
    <defs>
        <polygon id="path-1" points="0 0.000117647059 8.32320588 0.000117647059 8.32320588 8.32923529 0 8.32923529"></polygon>
    </defs>
    <g id="Page-1" stroke="none" stroke-width="1" fill="none" fill-rule="evenodd">
        <g id="Blog" transform="translate(-763.000000, -549.000000)">
            <g id="Group-14-Copy-2" transform="translate(763.000000, 549.000000)">
                <polygon id="Fill-1" fill="#78b855" points="7 5 22 5 22 3 7 3"></polygon>
                <polygon id="Fill-2" fill="#78b855" points="1 13 13 13 13 11 1 11"></polygon>
                <polygon id="Fill-3" fill="#78b855" points="19 13 22 13 22 11 19 11"></polygon>
                <polygon id="Fill-4" fill="#78b855" points="10 22 22 22 22 20 10 20"></polygon>
                <polygon id="Fill-5" fill="#78b855" points="1 22 4 22 4 20 1 20"></polygon>
                <g id="Group-13">
                    <g id="Group-8">
                        <mask id="mask-2" fill="#78b855">
                            <use xlink:href="#path-1"></use>
                        </mask>
                        <g id="Clip-7"></g>
                        <path d="M4.16055882,2.08335294 C3.01497059,2.08335294 2.0835,3.01717647 2.0835,4.16452941 C2.0835,5.31217647 3.01497059,6.246 4.16055882,6.246 C5.30702941,6.246 6.23967647,5.31217647 6.23967647,4.16452941 C6.23967647,3.01717647 5.30702941,2.08335294 4.16055882,2.08335294 M4.16055882,8.32923529 C1.86673529,8.32923529 -2.94117647e-05,6.461 -2.94117647e-05,4.16452941 C-2.94117647e-05,1.86835294 1.86673529,0.000117647059 4.16055882,0.000117647059 C6.45555882,0.000117647059 8.32320588,1.86835294 8.32320588,4.16452941 C8.32320588,6.461 6.45555882,8.32923529 4.16055882,8.32923529" id="Fill-6" fill="#78b855" mask="url(#mask-2)"></path>
                    </g>
                    <path d="M15.6177941,10.4167353 C14.4733824,10.4167353 13.5416176,11.3505588 13.5416176,12.4985 C13.5416176,13.6458529 14.4733824,14.5796765 15.6177941,14.5796765 C16.7651471,14.5796765 17.6980882,13.6458529 17.6980882,12.4985 C17.6980882,11.3505588 16.7651471,10.4167353 15.6177941,10.4167353 M15.6177941,16.6632059 C13.3239706,16.6632059 11.4583824,14.7943824 11.4583824,12.4985 C11.4583824,10.2014412 13.3239706,8.3335 15.6177941,8.3335 C17.9139706,8.3335 19.7813235,10.2014412 19.7813235,12.4985 C19.7813235,14.7943824 17.9139706,16.6632059 15.6177941,16.6632059" id="Fill-9" fill="#78b855"></path>
                    <path d="M7.28455882,18.7545588 C6.14014706,18.7545588 5.20838235,19.6883824 5.20838235,20.8354412 C5.20838235,21.9827941 6.14014706,22.9166176 7.28455882,22.9166176 C8.43191176,22.9166176 9.36485294,21.9827941 9.36485294,20.8354412 C9.36485294,19.6883824 8.43191176,18.7545588 7.28455882,18.7545588 M7.28455882,24.9998529 C4.99073529,24.9998529 3.12485294,23.1325 3.12485294,20.8354412 C3.12485294,18.5389706 4.99073529,16.6713235 7.28455882,16.6713235 C9.58044118,16.6713235 11.4480882,18.5389706 11.4480882,20.8354412 C11.4480882,23.1325 9.58044118,24.9998529 7.28455882,24.9998529" id="Fill-11" fill="#78b855"></path>
                </g>
            </g>
        </g>
    </g>
</svg>
