<svg width="24" height="20" viewBox="0 0 24 20" fill="none" xmlns="http://www.w3.org/2000/svg">
<path d="M3.75 15.25C4.125 15.25 4.5 15.625 4.5 16V19C4.5 19.4219 4.125 19.75 3.75 19.75H0.75C0.328125 19.75 0 19.4219 0 19V16C0 15.625 0.328125 15.25 0.75 15.25H3.75ZM3.75 0.25C4.125 0.25 4.5 0.625 4.5 1V4C4.5 4.42188 4.125 4.75 3.75 4.75H0.75C0.328125 4.75 0 4.42188 0 4V1C0 0.625 0.328125 0.25 0.75 0.25H3.75ZM3.75 7.75C4.125 7.75 4.5 8.125 4.5 8.5V11.5C4.5 11.9219 4.125 12.25 3.75 12.25H0.75C0.328125 12.25 0 11.9219 0 11.5V8.5C0 8.125 0.328125 7.75 0.75 7.75H3.75ZM23.25 16C23.625 16 24 16.375 24 16.75V18.25C24 18.6719 23.625 19 23.25 19H8.25C7.82812 19 7.5 18.6719 7.5 18.25V16.75C7.5 16.375 7.82812 16 8.25 16H23.25ZM23.25 1C23.625 1 24 1.375 24 1.75V3.25C24 3.67188 23.625 4 23.25 4H8.25C7.82812 4 7.5 3.67188 7.5 3.25V1.75C7.5 1.375 7.82812 1 8.25 1H23.25ZM23.25 8.5C23.625 8.5 24 8.875 24 9.25V10.75C24 11.1719 23.625 11.5 23.25 11.5H8.25C7.82812 11.5 7.5 11.1719 7.5 10.75V9.25C7.5 8.875 7.82812 8.5 8.25 8.5H23.25Z" fill="black"/>
</svg>
