<svg width="16" height="25" viewBox="0 0 16 25" fill="none" xmlns="http://www.w3.org/2000/svg">
<mask id="path-1-outside-1_1_201" maskUnits="userSpaceOnUse" x="0" y="0" width="16" height="25" fill="black">
<rect fill="white" width="16" height="25"/>
<path d="M9.25 14.8828C8.85938 14.9609 8.42969 15 8 15C7.60938 15 7.17969 14.9609 6.75 14.8828V21.0156L7.64844 22.3047C7.80469 22.5781 8.23438 22.5781 8.39062 22.3047L9.25 21.0156V14.8828ZM8 2.5C4.91406 2.5 2.375 5.03906 2.375 8.125C2.375 11.25 4.91406 13.75 8 13.75C11.125 13.75 13.625 11.25 13.625 8.125C13.625 5.03906 11.125 2.5 8 2.5ZM8 5.46875C7.76562 5.46875 7.53125 5.27344 7.53125 5C7.53125 4.76562 7.76562 4.53125 8 4.53125C9.99219 4.53125 11.5938 6.17188 11.5938 8.125C11.5938 8.39844 11.3984 8.59375 11.125 8.59375C10.8906 8.59375 10.6562 8.39844 10.6562 8.125C10.6562 6.67969 9.48438 5.46875 8 5.46875Z"/>
</mask>
<path d="M9.25 14.8828L8.85777 12.9217L11.25 12.4432V14.8828H9.25ZM6.75 14.8828H4.75V12.4864L7.10777 12.9151L6.75 14.8828ZM6.75 21.0156L5.1092 22.1592L4.75 21.6438V21.0156H6.75ZM7.64844 22.3047L9.28923 21.1611L9.34047 21.2346L9.38492 21.3124L7.64844 22.3047ZM8.39062 22.3047L6.65414 21.3124L6.68831 21.2526L6.72652 21.1953L8.39062 22.3047ZM9.25 21.0156H11.25V21.6212L10.9141 22.125L9.25 21.0156ZM9.25 14.8828L9.64223 16.844C9.10732 16.951 8.54499 17 8 17V15V13C8.31438 13 8.61143 12.9709 8.85777 12.9217L9.25 14.8828ZM8 15V17C7.48193 17 6.93239 16.9488 6.39223 16.8506L6.75 14.8828L7.10777 12.9151C7.42698 12.9731 7.73682 13 8 13V15ZM6.75 14.8828H8.75V21.0156H6.75H4.75V14.8828H6.75ZM6.75 21.0156L8.3908 19.872L9.28923 21.1611L7.64844 22.3047L6.00764 23.4483L5.1092 22.1592L6.75 21.0156ZM7.64844 22.3047L9.38492 21.3124C9.04819 20.7231 8.4639 20.5098 8.01953 20.5098C7.57516 20.5098 6.99087 20.7231 6.65414 21.3124L8.39062 22.3047L10.1271 23.297C9.63413 24.1597 8.75687 24.5098 8.01953 24.5098C7.2822 24.5098 6.40493 24.1597 5.91195 23.297L7.64844 22.3047ZM8.39062 22.3047L6.72652 21.1953L7.5859 19.9062L9.25 21.0156L10.9141 22.125L10.0547 23.4141L8.39062 22.3047ZM9.25 21.0156H7.25V14.8828H9.25H11.25V21.0156H9.25ZM8 2.5V4.5C6.01863 4.5 4.375 6.14363 4.375 8.125H2.375H0.375C0.375 3.93449 3.80949 0.5 8 0.5V2.5ZM2.375 8.125H4.375C4.375 10.1364 6.00958 11.75 8 11.75V13.75V15.75C3.81855 15.75 0.375 12.3636 0.375 8.125H2.375ZM8 13.75V11.75C10.0204 11.75 11.625 10.1454 11.625 8.125H13.625H15.625C15.625 12.3546 12.2296 15.75 8 15.75V13.75ZM13.625 8.125H11.625C11.625 6.13458 10.0114 4.5 8 4.5V2.5V0.5C12.2386 0.5 15.625 3.94355 15.625 8.125H13.625ZM8 5.46875V7.46875C6.7703 7.46875 5.53125 6.48417 5.53125 5H7.53125H9.53125C9.53125 4.0627 8.76095 3.46875 8 3.46875V5.46875ZM7.53125 5H5.53125C5.53125 4.23235 5.89494 3.6321 6.26352 3.26352C6.6321 2.89494 7.23235 2.53125 8 2.53125V4.53125V6.53125C8.53328 6.53125 8.89915 6.28475 9.09195 6.09195C9.28475 5.89915 9.53125 5.53328 9.53125 5H7.53125ZM8 4.53125V2.53125C11.1109 2.53125 13.5938 5.08146 13.5938 8.125H11.5938H9.59375C9.59375 7.26229 8.87352 6.53125 8 6.53125V4.53125ZM11.5938 8.125H13.5938C13.5938 9.50301 12.503 10.5938 11.125 10.5938V8.59375V6.59375C10.7725 6.59375 10.3679 6.72745 10.0477 7.0477C9.72745 7.36795 9.59375 7.77252 9.59375 8.125H11.5938ZM11.125 8.59375V10.5938C9.8953 10.5938 8.65625 9.60917 8.65625 8.125H10.6562H12.6562C12.6562 7.1877 11.886 6.59375 11.125 6.59375V8.59375ZM10.6562 8.125H8.65625C8.65625 7.76507 8.36071 7.46875 8 7.46875V5.46875V3.46875C10.608 3.46875 12.6562 5.59431 12.6562 8.125H10.6562Z" fill="white" mask="url(#path-1-outside-1_1_201)"/>
</svg>
