<?xml version="1.0" encoding="UTF-8"?>
<svg width="23px" height="22px" viewBox="0 0 23 22" version="1.1" xmlns="http://www.w3.org/2000/svg" xmlns:xlink="http://www.w3.org/1999/xlink">
    <!-- Generator: Sketch 53 (72520) - https://sketchapp.com -->
    <title>Group 3 Copy 5</title>
    <desc>Created with Sketch.</desc>
    <g id="Page-1" stroke="none" stroke-width="1" fill="none" fill-rule="evenodd">
        <g id="Team" transform="translate(-383.000000, -3665.000000)" stroke="white" stroke-width="1.5">
            <g id="Group-3-Copy-5" transform="translate(394.500000, 3676.000000) scale(-1, 1) translate(-394.500000, -3676.000000) translate(384.000000, 3666.000000)">
                <path d="M15.7236225,11.7812215 C15.2489178,11.7876316 14.8074981,12.0303093 14.5422683,12.4310508 L14.329381,12.7666757 C13.9464463,13.3079064 13.5525915,13.8494575 13.2651017,14.1850291 C13.1608893,14.273596 13.0284319,14.3196957 12.8927195,14.3152086 C12.0216401,14.3194821 9.37800448,12.4395977 8.75272992,11.8679722 C7.71097315,10.8723685 6.81794879,9.72687404 6.10279429,8.46781302 C5.98587687,8.3052622 5.99658687,8.2621005 6.25189419,7.94810981 C6.3763716,7.79042003 6.511559,7.64218522 6.6564589,7.50399299 C6.78770881,7.36243543 6.91202872,7.21420063 7.02889364,7.06014327 C7.26855597,6.81986934 7.46343583,6.53734182 7.60345323,6.22634253 C7.97305297,5.33148507 6.0909818,0 4.51724291,0 C3.44183367,0 2.66042422,0.0049678691 1.81401982,0.844430912 C0.596283179,2.00728621 -0.0637988546,3.65149063 0.00487109695,5.34921983 C0.158118489,7.36120682 0.899365465,9.28078076 2.13332459,10.8607768 C4.51136291,14.3579964 6.90704122,16.7555541 10.743056,18.5815398 C12.3697149,19.3551385 14.1162311,19.8348851 15.9046424,20 C17.6255912,20 20.0360745,18.8465997 20.629954,17.1413385 C21.0111038,16.2555087 21.1007737,15.2679177 20.8852089,14.3261059 C20.5158191,13.8296395 16.5914469,11.7939349 15.7236225,11.7812215 Z" id="Fill-1"></path>
            </g>
        </g>
    </g>
</svg>
