<svg width="21" height="20" viewBox="0 0 21 20" fill="none" xmlns="http://www.w3.org/2000/svg">
<mask id="path-1-outside-1_1_164" maskUnits="userSpaceOnUse" x="0" y="0" width="21" height="20" fill="black">
<rect fill="white" width="21" height="20"/>
<path d="M2.59375 2.78125C2.25 2.875 2 3.15625 2 3.5C2 11.5312 8.5 18 16.5 18C16.875 18 17.1562 17.7812 17.25 17.4375L18 14.1875C18.0625 13.8438 17.9062 13.4688 17.5625 13.3125L14.0625 11.8125C13.75 11.6875 13.4062 11.7812 13.1875 12.0312L11.625 13.9375C9.1875 12.7812 7.21875 10.7812 6.09375 8.40625L8 6.84375C8.25 6.625 8.34375 6.28125 8.21875 5.96875L6.71875 2.46875C6.5625 2.125 6.1875 1.9375 5.84375 2.03125L2.59375 2.78125Z"/>
</mask>
<path d="M2.59375 2.78125L2.06752 0.851722L2.10558 0.84134L2.14403 0.832468L2.59375 2.78125ZM17.25 17.4375L19.1988 17.8872L19.1899 17.9257L19.1795 17.9637L17.25 17.4375ZM18 14.1875L19.9677 14.5453L19.9593 14.5915L19.9488 14.6372L18 14.1875ZM17.5625 13.3125L18.3503 11.4742L18.3703 11.4828L18.3901 11.4918L17.5625 13.3125ZM14.0625 11.8125L14.8053 9.95555L14.8279 9.9646L14.8503 9.97421L14.0625 11.8125ZM13.1875 12.0312L11.6407 10.7634L11.6611 10.7385L11.6823 10.7142L13.1875 12.0312ZM11.625 13.9375L13.1718 15.2054L12.1806 16.4146L10.7678 15.7445L11.625 13.9375ZM6.09375 8.40625L4.28627 9.26242L3.61729 7.85012L4.82589 6.85947L6.09375 8.40625ZM8 6.84375L9.31701 8.3489L9.29277 8.37011L9.26786 8.39053L8 6.84375ZM8.21875 5.96875L10.057 5.18091L10.0666 5.20333L10.0757 5.22597L8.21875 5.96875ZM6.71875 2.46875L8.53948 1.64114L8.54848 1.66093L8.55704 1.68091L6.71875 2.46875ZM5.84375 2.03125L6.36998 3.96078L6.33192 3.97116L6.29347 3.98003L5.84375 2.03125ZM2.59375 2.78125L3.11998 4.71078C3.48414 4.61146 4 4.21592 4 3.5H2H0C0 2.09658 1.01586 1.13854 2.06752 0.851722L2.59375 2.78125ZM2 3.5H4C4 10.4239 9.60176 16 16.5 16V18V20C7.39824 20 0 12.6386 0 3.5H2ZM16.5 18V16C16.2898 16 16.0208 16.0656 15.7728 16.2535C15.5249 16.4413 15.3812 16.6884 15.3205 16.9113L17.25 17.4375L19.1795 17.9637C18.845 19.1903 17.7636 20 16.5 20V18ZM17.25 17.4375L15.3012 16.9878L16.0512 13.7378L18 14.1875L19.9488 14.6372L19.1988 17.8872L17.25 17.4375ZM18 14.1875L16.0323 13.8297C15.9548 14.2557 16.1282 14.8575 16.7349 15.1332L17.5625 13.3125L18.3901 11.4918C19.6843 12.08 20.1702 13.4318 19.9677 14.5453L18 14.1875ZM17.5625 13.3125L16.7747 15.1508L13.2747 13.6508L14.0625 11.8125L14.8503 9.97421L18.3503 11.4742L17.5625 13.3125ZM14.0625 11.8125L13.3197 13.6695C13.841 13.878 14.3858 13.699 14.6927 13.3483L13.1875 12.0312L11.6823 10.7142C12.4267 9.86351 13.659 9.49702 14.8053 9.95555L14.0625 11.8125ZM13.1875 12.0312L14.7343 13.2991L13.1718 15.2054L11.625 13.9375L10.0782 12.6696L11.6407 10.7634L13.1875 12.0312ZM11.625 13.9375L10.7678 15.7445C7.90874 14.3883 5.60666 12.0499 4.28627 9.26242L6.09375 8.40625L7.90123 7.55008C8.83084 9.51261 10.4663 11.1742 12.4822 12.1305L11.625 13.9375ZM6.09375 8.40625L4.82589 6.85947L6.73214 5.29697L8 6.84375L9.26786 8.39053L7.36161 9.95303L6.09375 8.40625ZM8 6.84375L6.68299 5.3386C6.33226 5.64549 6.15327 6.19022 6.3618 6.71153L8.21875 5.96875L10.0757 5.22597C10.5342 6.37228 10.1677 7.60451 9.31701 8.3489L8 6.84375ZM8.21875 5.96875L6.38046 6.75659L4.88046 3.25659L6.71875 2.46875L8.55704 1.68091L10.057 5.18091L8.21875 5.96875ZM6.71875 2.46875L4.89802 3.29636C5.11154 3.76609 5.68483 4.14764 6.36998 3.96078L5.84375 2.03125L5.31752 0.101722C6.69017 -0.272639 8.01346 0.483905 8.53948 1.64114L6.71875 2.46875ZM5.84375 2.03125L6.29347 3.98003L3.04347 4.73003L2.59375 2.78125L2.14403 0.832468L5.39403 0.0824676L5.84375 2.03125Z" fill="white" mask="url(#path-1-outside-1_1_164)"/>
</svg>
