<?xml version="1.0" encoding="UTF-8"?>
<svg width="9px" height="9px" viewBox="0 0 9 9" version="1.1" xmlns="http://www.w3.org/2000/svg" xmlns:xlink="http://www.w3.org/1999/xlink">
    <!-- Generator: Sketch 53 (72520) - https://sketchapp.com -->
    <title>Fill 1</title>
    <desc>Created with Sketch.</desc>
    <g id="Page-1" stroke="none" stroke-width="1" fill="none" fill-rule="evenodd">
        <g id="Blog-post" transform="translate(-933.000000, -35.000000)" fill="#FFFFFF">
            <g id="nav" transform="translate(-7.000000, 0.000000)">
                <g id="Group-8" transform="translate(940.000000, 31.000000)">
                    <g id="Group">
                        <g id="Group-7">
                            <g id="Group-6" transform="translate(0.000000, 4.000000)">
                                <g id="Group-3">
                                    <path d="M5.43383639,5.16524223 L5.3506702,5.25427022 L5.25992235,5.33601411 C4.76252407,5.78216575 4.1163808,6.02800441 3.4403235,6.02800441 C2.71929198,6.02800441 2.04158424,5.75262464 1.53180774,5.25265153 C1.02285645,4.75348777 0.742695989,4.08861054 0.742695989,3.38063566 C0.742695989,2.67266079 1.02285645,2.00798589 1.53180774,1.50882213 C2.04158424,1.00884902 2.71929198,0.733469253 3.4403235,0.733469253 C4.16114871,0.733469253 4.83906275,1.00884902 5.34883926,1.50882213 C5.85861576,2.00879524 6.13936934,2.67367247 6.13936934,3.38063566 C6.13936934,4.04369187 5.8887361,4.6774093 5.43383639,5.16524223 M8.84362436,7.97164734 L6.20850688,5.3872052 C6.64504556,4.80913026 6.88208854,4.10864183 6.88208854,3.38063566 C6.88208854,2.47902491 6.52415158,1.63123562 5.87408854,0.993673793 C5.2240255,0.356111968 4.35961289,0.00505840864 3.4403235,0.00505840864 C2.5210341,0.00505840864 1.65662149,0.356111968 1.00655845,0.993673793 C0.35732063,1.63042627 2.57879656e-06,2.47821556 2.57879656e-06,3.38063566 C2.57879656e-06,4.2832581 0.35732063,5.13104739 1.00655845,5.76759753 C1.65662149,6.40515936 2.5210341,6.75641525 3.4403235,6.75641525 C4.1826043,6.75641525 4.89682779,6.52372845 5.48600544,6.09578708 L8.12114871,8.68022923 C8.21769885,8.7747203 8.34601977,8.82692308 8.48238653,8.82692308 C8.6187533,8.82692308 8.74704842,8.7747203 8.84362436,8.68022923 C9.04291375,8.48477232 9.04291375,8.16690192 8.84362436,7.97164734" id="Fill-1"></path>
                                </g>
                            </g>
                        </g>
                    </g>
                </g>
            </g>
        </g>
    </g>
</svg>