<svg width="21" height="21" viewBox="0 0 21 21" fill="none" xmlns="http://www.w3.org/2000/svg">
<path d="M19.7266 17.8047C20.0781 18.1953 20.0781 18.7812 19.6875 19.1328L18.5938 20.2266C18.2422 20.6172 17.6562 20.6172 17.2656 20.2266L13.3984 16.3594C13.2031 16.1641 13.125 15.9297 13.125 15.6953V15.0312C11.7188 16.125 10 16.75 8.125 16.75C3.63281 16.75 0 13.1172 0 8.625C0 4.17188 3.63281 0.5 8.125 0.5C12.5781 0.5 16.25 4.17188 16.25 8.625C16.25 10.5391 15.5859 12.2578 14.5312 13.625H15.1562C15.3906 13.625 15.625 13.7422 15.8203 13.8984L19.7266 17.8047ZM8.125 13.625C10.8594 13.625 13.125 11.3984 13.125 8.625C13.125 5.89062 10.8594 3.625 8.125 3.625C5.35156 3.625 3.125 5.89062 3.125 8.625C3.125 11.3984 5.35156 13.625 8.125 13.625Z" fill="#D9D9D9"/>
</svg>
